<svg width="1126" height="1478" viewBox="0 0 1126 1478" fill="none" xmlns="http://www.w3.org/2000/svg">
<g clip-path="url(#clip0)">
<rect width="1125.09" height="1478" fill="black"/>
<path d="M-356.109 1161.07L-282.336 971.376C-244.726 874.67 -142.287 819.689 -40.7986 841.741L170.611 887.675C255.32 906.081 320.171 974.356 334.138 1059.84L376.217 1317.36C379.892 1339.86 387.923 1361.42 399.859 1380.85L406.921 1392.35C446.164 1456.22 435.338 1538.8 380.957 1590.39C338.214 1630.94 276.498 1644.49 220.662 1625.58L60.6339 1571.38C29.4821 1560.83 -3.70379 1557.7 -36.2767 1562.24L-59.8205 1565.52C-144.263 1577.28 -227.512 1537.13 -270.833 1463.74L-341.163 1344.59C-374.022 1288.93 -379.531 1221.29 -356.109 1161.07Z" stroke="url(#paint0_radial)" stroke-width="1.84289"/>
<path d="M-370.297 1187.28L-292.165 971.063C-256.724 872.989 -156.023 815.282 -54.6953 834.979L183.64 881.31C268.271 897.762 334.165 964.857 349.778 1050.48L400.535 1328.82C404.855 1352.51 413.71 1375.1 426.604 1395.33L434.185 1407.23C476.591 1473.78 467.027 1561.37 411.248 1617.29C367.419 1661.23 303.181 1677.12 244.391 1658.55L73.4794 1604.58C42.2915 1594.73 9.23323 1592.39 -23.0585 1597.74L-57.2634 1603.41C-140.999 1617.28 -224.608 1578.91 -269.177 1506.17L-351.729 1371.43C-385.536 1316.25 -392.379 1248.38 -370.297 1187.28Z" stroke="url(#paint1_radial)" stroke-width="1.84289"/>
<path d="M-343.653 1133.65L-273.092 970.031C-232.335 875.519 -127.528 824.711 -25.9608 850.228L159.599 896.845C244.395 918.148 307.706 988.193 319.235 1073.46L351.305 1310.66C354.19 1331.99 361.271 1352.59 372.154 1371.32L378.578 1382.37C414.363 1443.93 401.662 1521.41 348.119 1568.18C306.039 1604.94 246.552 1615.59 193.609 1595.85L44.2106 1540.16C13.1434 1528.58 -20.1923 1524.28 -53.1375 1527.6L-66.3559 1528.93C-151.772 1537.55 -234.448 1494.73 -275.911 1420.4L-334.05 1316.17C-365.5 1259.79 -369.039 1192.52 -343.653 1133.65Z" stroke="url(#paint2_radial)" stroke-width="1.84289"/>
<path d="M-328.807 1107.69L-264.702 969.975C-221.592 877.36 -115.255 829.872 -13.8186 857.933L143.594 901.481C228.518 924.974 290.718 996.455 300.358 1081.63L324.684 1296.58C326.958 1316.67 333.238 1336.19 343.172 1354.04L348.877 1364.29C381.582 1423.07 367.862 1495.51 315.976 1538.01C275.249 1571.37 218.569 1579.82 168.713 1559.95L30.7621 1504.97C-0.21666 1492.63 -34.0887 1487.48 -67.2748 1489.89C-153.409 1496.14 -236.955 1451.36 -277.004 1376.28L-323.313 1289.45C-353.692 1232.5 -355.717 1165.5 -328.807 1107.69Z" stroke="url(#paint3_radial)" stroke-width="1.84289"/>
<path d="M-313.929 1082.78L-256.67 969.619C-210.964 879.289 -103.09 835.645 -1.93484 866.559L128.166 906.317C213.215 932.308 274.151 1005.45 281.637 1090.52L298.628 1283.62C300.289 1302.5 305.772 1320.96 314.767 1337.97L319.716 1347.33C349.389 1403.45 334.622 1470.97 284.307 1509.24C244.886 1539.23 190.954 1545.44 144.12 1525.39L15.0541 1470.15C-14.2845 1457.6 -46.1116 1451.73 -77.8925 1453.03C-160.515 1456.4 -238.246 1411.5 -274.792 1339.29L-313.09 1263.63C-342.243 1206.03 -342.552 1139.35 -313.929 1082.78Z" stroke="url(#paint4_radial)" stroke-width="1.84289"/>
<path d="M-297.86 1058.56L-249.044 969.565C-200.833 881.673 -91.6635 841.947 9.05549 875.643L110.986 909.745C196.159 938.24 255.839 1013.09 261.15 1098.07L271.803 1268.52C272.905 1286.15 277.631 1303.51 285.713 1319.62L289.892 1327.95C316.62 1381.24 301.072 1443.81 252.615 1477.98C214.747 1504.68 163.786 1508.86 120.068 1488.85L-0.255688 1433.78C-27.6082 1421.26 -57.4451 1414.89 -87.3928 1415.18C-165.425 1415.92 -237.773 1371.75 -270.563 1303.34L-301.677 1238.43C-329.596 1180.19 -328.188 1113.85 -297.86 1058.56Z" stroke="url(#paint5_radial)" stroke-width="1.84289"/>
<path d="M-281.393 1033.18L-241.89 968.165C-190.545 883.659 -80.0259 849.134 19.9067 886.382L92.8988 913.588C178.207 945.385 236.229 1022.53 238.661 1107.38L242.861 1253.96C243.328 1270.27 247.22 1286.49 254.314 1301.69L257.6 1308.74C281.157 1359.22 264.613 1416.61 217.941 1446.31C181.621 1469.42 133.743 1471.29 93.2907 1451.19L-17.8179 1395.96C-43.0766 1383.4 -70.8219 1376.42 -98.8511 1375.55C-172.154 1373.3 -238.855 1329.6 -267.585 1265.01L-291.304 1211.68C-317.586 1152.59 -313.929 1086.73 -281.393 1033.18Z" stroke="url(#paint6_radial)" stroke-width="1.84289"/>
<path d="M-261.889 1009.48L-233.754 967.469C-179.524 886.491 -68.1016 857.095 30.8153 897.67L74.1862 915.461C159.622 950.506 216.017 1029.98 215.583 1114.72L214.958 1236.71C214.881 1251.69 218.012 1266.72 224.167 1280.93L226.609 1286.57C247.16 1334.02 230.018 1386.25 185.527 1411.75C151.084 1431.48 106.554 1431.39 69.4505 1411.5L-32.207 1357.01C-55.3167 1344.62 -80.8664 1337.23 -106.833 1335.42C-175.056 1330.68 -236.028 1287.98 -260.918 1227.5L-277.769 1186.56C-302.428 1126.64 -296.564 1061.26 -261.889 1009.48Z" stroke="url(#paint7_radial)" stroke-width="1.84289"/>
<path d="M-244.112 990.363L-225.781 965.917C-168.282 889.237 -55.9968 866.048 41.5276 910.713L56.0199 917.35C141.333 956.422 195.547 1038.64 191.655 1123.06L187.145 1220.86C186.517 1234.49 188.874 1248.33 194.077 1261.57L195.763 1265.86C213.232 1310.32 195.46 1357.33 153.18 1378.5C120.634 1394.8 79.4857 1392.64 45.775 1372.88L-46.3463 1318.87C-67.286 1306.6 -90.6218 1298.75 -114.512 1295.95C-177.595 1288.55 -232.741 1246.7 -253.715 1190.29L-266.036 1157.15C-287.594 1099.18 -279.493 1037.55 -244.112 990.363Z" stroke="url(#paint8_radial)" stroke-width="1.84289"/>
<path d="M-228.124 975.028L-212.363 956.687C-154.155 888.954 -47.033 873.904 43.8597 920.691C125.262 962.592 174.546 1044.5 166.67 1124.78L158.954 1203.43C157.753 1215.68 159.314 1228.3 163.544 1240.55L164.35 1242.88C178.7 1284.43 160.273 1326.24 120.214 1343.04C89.6984 1355.83 52.1139 1351.65 21.8708 1332.09L-60.396 1278.9C-79.0881 1266.81 -100.101 1258.58 -121.786 1254.83C-179.589 1244.85 -228.821 1203.84 -245.807 1151.51L-255.236 1122.46C-272.439 1069.47 -262.408 1014.92 -228.124 975.028Z" stroke="url(#paint9_radial)" stroke-width="1.84289"/>
<path d="M-210.341 962.356L-193.347 944.821C-138.312 888.033 -41.8354 880.075 38.3413 925.709C111.614 967.415 153.923 1044.19 143.4 1116.34L133.56 1183.82C131.971 1194.71 132.9 1206.11 136.291 1217.31L136.549 1218.16C148.159 1256.48 129.734 1293.33 92.4323 1306.4C64.2737 1316.26 30.364 1310.67 3.51964 1291.74L-69.2314 1240.44C-85.7516 1228.79 -104.473 1220.46 -123.935 1216.11C-176.238 1204.41 -219.713 1165.02 -233.258 1117.05L-240.404 1091.75C-253.948 1043.79 -242.813 995.862 -210.341 962.356Z" stroke="url(#paint10_radial)" stroke-width="1.84289"/>
<path d="M-191.092 949.76L-171.334 932.577C-119.749 887.715 -35.0793 887.253 33.53 931.461C98.6839 973.442 133.663 1045.69 119.805 1109.66L107.977 1164.26C105.921 1173.75 106.14 1183.89 108.62 1194.02C117.053 1228.47 98.8167 1259.53 64.9815 1268.34L63.5732 1268.71C37.8597 1275.41 7.82703 1268.27 -15.4823 1249.92L-78.2489 1200.51C-92.4771 1189.31 -108.766 1180.89 -125.858 1175.9C-172.524 1162.26 -210.01 1124.22 -219.807 1080.54L-224.467 1059.77C-234.026 1017.15 -221.639 976.326 -191.092 949.76Z" stroke="url(#paint11_radial)" stroke-width="1.84289"/>
<path d="M-169.815 937.726L-146.976 921.796C-99.62 888.766 -27.5663 895.174 28.9997 937.445C85.4151 979.603 112.548 1047.07 95.3322 1102.38L82.3504 1144.09C79.8526 1152.11 79.36 1160.93 80.9061 1169.94C86.0351 1199.83 68.4988 1224.62 38.9739 1229.22L35.2478 1229.79C12.2478 1233.37 -13.6322 1224.81 -33.2117 1207.15L-85.5668 1159.93C-97.3946 1149.26 -111.119 1140.83 -125.697 1135.28C-166.331 1119.81 -197.458 1083.27 -203.373 1044.1L-205.802 1028.01C-211.394 990.982 -198.003 957.386 -169.815 937.726Z" stroke="url(#paint12_radial)" stroke-width="1.84289"/>
<path d="M-146.976 927.516L-120.614 913.817C-78.5732 891.969 -19.9292 903.737 24.3942 942.916C71.6686 984.703 90.691 1046.99 70.32 1093.29L57.5607 1122.29C54.6918 1128.82 53.5336 1136.26 54.1704 1144.09C56.2127 1169.2 39.8252 1187.93 15.0199 1188.83L8.85044 1189.06C-11.1327 1189.79 -32.6273 1180.19 -48.383 1163.52L-90.2035 1119.25C-99.5862 1109.32 -110.665 1101.12 -122.617 1095.25C-156.919 1078.4 -181.486 1043.77 -183.564 1009.32L-184.236 998.173C-186.116 967.011 -172.202 940.626 -146.976 927.516Z" stroke="url(#paint13_radial)" stroke-width="1.84289"/>
<path d="M-125.968 920.59L-97.2002 910.039C-61.7226 897.027 -16.1635 911.089 17.0255 945.294C55.3197 984.761 67.1427 1040.5 45.1381 1077.83L34.4008 1096.04C31.4043 1101.13 29.8096 1107.19 29.7426 1113.76C29.5361 1134.02 15.0095 1147.56 -4.93118 1146.08L-12.9605 1145.49C-29.661 1144.25 -46.8333 1134.59 -59.0272 1119.57L-91.2216 1079.9C-98.3621 1071.11 -106.95 1063.6 -116.366 1057.94C-144.371 1041.08 -162.856 1009.51 -161.91 980.144L-161.697 973.546C-160.885 948.338 -147.489 928.483 -125.968 920.59Z" stroke="url(#paint14_radial)" stroke-width="1.84289"/>
<path d="M-102.538 915.735L-71.0065 910.332C-43.0238 905.538 -11.0064 920.582 10.8813 948.809C39.3685 985.546 42.9119 1034.13 19.1025 1061.53L12.0434 1069.65C8.95601 1073.21 6.91834 1077.79 6.11177 1083.01C3.76798 1098.15 -8.61306 1106.63 -23.4097 1103.22L-33.2095 1100.96C-46.3484 1097.93 -58.9521 1088.51 -67.3908 1075.4L-89.646 1040.82C-94.4602 1033.34 -100.457 1026.74 -107.228 1021.47C-128.555 1004.86 -140.404 976.684 -136.116 952.764L-135.775 950.86C-132.385 931.949 -119.849 918.701 -102.538 915.735Z" stroke="url(#paint15_radial)" stroke-width="1.84289"/>
<path d="M-84.2108 920.697L-61.1607 916.713C-40.4751 913.139 -16.7885 924.271 -0.622761 945.166C20.3237 972.241 22.93 1008 5.42985 1028.2L0.124389 1034.33C-2.14889 1036.96 -3.64904 1040.34 -4.24311 1044.19C-5.97318 1055.38 -15.1228 1061.65 -26.0603 1059.14L-33.1931 1057.5C-42.8844 1055.27 -52.1804 1048.31 -58.3941 1038.63L-74.7793 1013.11C-78.3276 1007.59 -82.7513 1002.71 -87.7484 998.809C-103.453 986.561 -112.175 965.802 -109.021 948.177L-108.753 946.682C-106.252 932.705 -96.9979 922.906 -84.2108 920.697Z" stroke="url(#paint16_radial)" stroke-width="1.84289"/>
<path d="M-66.349 928.242L-51.9757 925.718C-38.7981 923.403 -23.6864 930.51 -13.4055 943.856C-0.19635 961.003 1.44814 983.592 -9.57967 996.408L-13.0637 1000.46C-14.5011 1002.13 -15.4493 1004.28 -15.8252 1006.72C-16.9243 1013.85 -22.7497 1017.85 -29.7167 1016.25L-34.1268 1015.24C-40.2749 1013.83 -46.1716 1009.41 -50.1005 1003.26L-60.459 987.05C-62.7068 983.533 -65.5135 980.427 -68.6867 977.944C-78.6185 970.173 -84.1302 957.036 -82.1398 945.877L-81.9512 944.82C-80.3635 935.919 -74.4829 929.67 -66.349 928.242Z" stroke="url(#paint17_radial)" stroke-width="1.84289"/>
<rect x="508.639" y="729.786" width="748.214" height="1032.94" transform="rotate(90 508.639 729.786)" fill="url(#paint18_linear)"/>
<g opacity="0.8" filter="url(#filter0_f)">
<path d="M113.471 1113.99C102.884 1149.72 123.386 1174.44 153.174 1231.78C182.961 1289.11 308.699 1325.8 329.188 1315.15C349.677 1304.51 230.604 1315.57 200.817 1258.24C171.029 1200.91 115.684 1167.07 113.471 1113.99Z" fill="url(#paint19_linear)"/>
</g>
<g opacity="0.4" filter="url(#filter1_f)">
<ellipse rx="547.855" ry="195.79" transform="matrix(-0.804668 -0.593725 -0.593725 0.804668 949.627 952.269)" fill="url(#paint20_linear)"/>
</g>
<path d="M822.263 1137.5L405.31 975.344C308.604 937.734 253.624 835.295 275.675 733.807L379.167 257.494C397.573 172.785 465.848 107.933 551.327 93.9666L1019.3 17.5031C1046.36 13.0814 1072.3 3.42089 1095.67 -10.9378L1140.62 -38.5533C1225.52 -90.7154 1335.29 -76.3248 1403.86 -4.04223L1430.5 24.0355C1484.4 80.8495 1502.4 162.882 1477.27 237.1L1382.53 516.841C1371.98 547.993 1368.85 581.179 1373.39 613.752L1391.52 743.927C1403.28 828.37 1363.13 911.619 1289.74 954.94L1005.79 1122.56C950.122 1155.41 882.486 1160.92 822.263 1137.5Z" stroke="url(#paint21_radial)" stroke-width="1.84289"/>
<path d="M862.32 1157.75L403.653 992.001C305.579 956.561 247.872 855.86 267.569 754.532L367.982 237.993C384.434 153.362 451.529 87.4678 537.148 71.8548L1039.14 -19.6856C1066.25 -24.6286 1092.1 -34.7619 1115.26 -49.5179L1171.24 -85.1941C1255.33 -138.781 1366.02 -126.695 1436.68 -56.2105L1476.52 -16.4713C1532.05 38.9134 1552.12 120.087 1528.66 194.378L1432.92 497.584C1423.07 528.772 1420.73 561.83 1426.08 594.122L1450.16 739.509C1464.03 823.244 1425.66 906.854 1352.92 951.422L1046.47 1139.18C991.297 1172.99 923.427 1179.83 862.32 1157.75Z" stroke="url(#paint22_radial)" stroke-width="1.84289"/>
<path d="M780.013 1120.36L405.201 958.724C310.69 917.967 259.882 813.161 285.398 711.593L395.343 273.959C416.646 189.162 486.692 125.851 571.961 114.322L1006.68 55.5452C1033.67 51.8953 1059.75 42.9333 1083.44 29.161L1117.69 9.25304C1203.75 -40.7723 1312.07 -23.0172 1377.45 51.8324L1391.97 68.461C1443.36 127.286 1458.25 210.445 1430.66 284.456L1334.85 541.441C1323.27 572.509 1318.97 605.844 1322.3 638.789L1333.98 754.551C1342.6 839.967 1299.78 922.643 1225.44 964.106L962.53 1110.76C906.147 1142.21 838.881 1145.75 780.013 1120.36Z" stroke="url(#paint23_radial)" stroke-width="1.84289"/>
<path d="M740.194 1099.28L406.806 944.092C314.191 900.982 266.703 794.646 294.764 693.209L404.133 297.867C427.627 212.943 499.108 150.743 584.287 141.103L982.756 96.0068C1009.73 92.9546 1035.93 84.5235 1059.9 71.1871L1081.88 58.9561C1168.81 10.5837 1275.95 30.8765 1338.82 107.619L1341.7 111.13C1391.04 171.368 1403.53 255.202 1374.14 328.942L1281.43 561.571C1269.09 592.549 1263.91 625.964 1266.32 659.15L1273.52 758.477C1279.77 844.611 1234.9 926.866 1159.81 966.915L921.957 1093.78C865.003 1124.16 798.005 1126.19 740.194 1099.28Z" stroke="url(#paint24_radial)" stroke-width="1.84289"/>
<path d="M701.809 1078.3L408.31 929.795C317.98 884.09 274.336 776.215 305.25 675.06L413.482 320.897C439.473 235.848 512.612 174.912 597.686 167.426L960.574 135.496C987.515 133.125 1013.87 125.299 1038.15 112.458L1054.12 104.015C1138.39 59.4552 1239.79 81.631 1297.26 157.189C1342.29 216.385 1351.62 297.375 1321.52 367.705L1229.97 581.604C1216.76 612.456 1210.6 645.926 1211.96 679.347L1215.35 762.543C1218.89 849.43 1171.68 931.172 1095.75 969.605L882.652 1077.46C825.054 1106.61 758.379 1106.92 701.809 1078.3Z" stroke="url(#paint25_radial)" stroke-width="1.84289"/>
<path d="M664.421 1055.53L410.417 916.203C322.524 867.991 282.798 758.822 316.494 658.103L420.727 346.551C449.222 261.379 524.067 201.698 609.047 196.387L935.778 175.967C962.243 174.313 988.313 167.217 1012.51 155.08L1025.02 148.803C1105.04 108.667 1199 132.015 1250.31 204.783C1290.41 261.648 1296.68 338.177 1266.64 403.828L1176.72 600.294C1162.67 630.994 1155.52 664.482 1155.84 698.095L1156.47 764.291C1157.31 851.872 1107.73 933.074 1030.95 969.878L844.292 1059.35C786.048 1087.27 719.71 1085.86 664.421 1055.53Z" stroke="url(#paint26_radial)" stroke-width="1.84289"/>
<path d="M624.938 1032.57L411.363 902.797C326.858 851.452 292.333 740.933 329.58 641.001L429.276 373.525C461.073 288.217 538.213 230.195 623.067 227.763L913.901 219.43C938.401 218.728 962.764 212.883 985.591 202.231L996.168 197.295C1071.98 161.92 1158.16 186.765 1202.75 256.851C1237.46 311.393 1240.27 383.291 1210.08 444.038L1121.5 622.252C1106.36 652.71 1097.93 686.167 1096.89 719.966L1095.4 768.437C1092.68 856.831 1039.98 937.262 962.097 971.906L803.439 1042.48C744.352 1068.76 678.486 1065.1 624.938 1032.57Z" stroke="url(#paint27_radial)" stroke-width="1.84289"/>
<path d="M587.96 1004.99L413.503 888.156C332.524 833.927 303.129 722.504 343.704 623.587L434.833 401.426C469.878 315.991 549.351 259.596 634.091 260.03L888.01 261.331C910.494 261.446 933.065 256.745 954.411 247.501L962.879 243.834C1034.14 212.973 1112.57 238.714 1150.86 305.526C1180.49 357.25 1180.35 424.12 1150.48 479.837L1064.96 639.378C1048.79 669.556 1039.14 702.92 1036.78 736.828L1034.71 766.671C1028.51 855.759 972.743 935.381 893.772 967.883L765.034 1020.87C705.12 1045.53 639.738 1039.66 587.96 1004.99Z" stroke="url(#paint28_radial)" stroke-width="1.84289"/>
<path d="M551.919 976.093L415.024 873.442C338.344 815.944 315.155 703.658 359.82 606.134L441.08 428.705C480.152 343.392 562.373 289.178 646.785 293.07L864.205 303.095C884.668 304.039 905.455 300.5 925.339 292.686L931.785 290.154C998.545 263.922 1069.14 290.609 1100.93 354.1C1125.4 402.974 1122.17 464.766 1092.49 515.389L1009.89 656.277C992.44 686.045 981.283 719.22 977.302 753.182L975.98 764.456C965.468 854.137 905.964 932.532 825.776 962.349L726.942 999.099C666.102 1021.72 601.432 1013.22 551.919 976.093Z" stroke="url(#paint29_radial)" stroke-width="1.84289"/>
<path d="M516.029 944.741L414.722 857.682C343.717 796.662 327.941 684.366 376.987 589.084L445.172 456.62C489.097 371.286 574.957 319.621 659.121 327.878L838.034 345.429C856.421 347.233 875.381 344.888 893.769 338.537L897.274 337.326C959.661 315.777 1022.45 343.45 1047.67 403.606C1066.89 449.43 1060.61 505.871 1031.24 551.286L951.361 674.826C933.212 702.896 920.84 734.451 915.218 767.015C900.232 853.817 838.641 927.748 760.063 953.255L688.558 976.467C626.544 996.598 562.714 984.86 516.029 944.741Z" stroke="url(#paint30_radial)" stroke-width="1.84289"/>
<path d="M486.045 909.724L416.451 842.279C350.564 778.424 341.33 666.489 394.277 573.465L444.819 484.666C493.207 399.652 582.28 350.564 665.999 362.773L808.573 383.565C824.94 385.952 842.058 384.556 858.867 379.464L860.141 379.078C917.692 361.642 973.036 389.311 992.654 445.327C1007.46 487.612 999.068 538.534 970.641 578.846L893.601 688.096C876.107 712.904 863.603 741.018 857.067 770.243C839.501 848.787 780.346 914.073 708.314 934.414L655.951 949.2C592.972 966.985 530.043 952.364 486.045 909.724Z" stroke="url(#paint31_radial)" stroke-width="1.84289"/>
<path d="M457.095 871.092L415.909 823.735C357.564 756.646 356.964 646.532 414.457 557.304L443.819 511.734C498.417 427 592.382 381.509 675.577 399.532L779.203 421.982C793.456 425.07 808.679 424.742 823.891 421.018C875.624 408.353 922.27 435.739 935.509 486.549L936.061 488.664C946.122 527.277 935.405 572.377 907.849 607.381L833.649 701.637C816.829 723.003 804.181 747.464 796.682 773.13C776.208 843.208 719.073 899.502 653.49 914.213L622.289 921.212C558.3 935.566 496.988 916.964 457.095 871.092Z" stroke="url(#paint32_radial)" stroke-width="1.84289"/>
<path d="M439.022 839.141L414.059 803.351C365.074 733.118 374.577 626.257 437.268 542.366L439.929 538.805C502.453 455.137 602.509 414.896 684.538 440.429L748.91 460.466C760.961 464.217 774.202 464.957 787.735 462.635C832.629 454.933 869.855 481.267 876.75 525.604L877.62 531.2C882.991 565.739 870.137 604.602 843.618 634.005L772.707 712.626C756.687 730.388 744.027 750.998 735.691 772.889C712.454 833.909 657.582 880.652 598.76 889.535L574.603 893.183C518.997 901.58 468.545 881.47 439.022 839.141Z" stroke="url(#paint33_radial)" stroke-width="1.84289"/>
<path d="M423.689 804.843L403.117 765.257C370.308 702.124 387.98 614.059 446.815 547.499C509.567 476.507 603.101 447.941 672.634 478.532L716.186 497.693C725.979 502.001 737.16 503.74 748.917 502.784C786.62 499.717 814.743 524.326 816.103 561.576L816.441 570.841C817.537 600.849 803.134 633.127 778.091 656.788L711.619 719.589C696.706 733.679 684.385 750.316 675.571 768.263C650.276 819.775 598.263 856.667 546.534 859.787L529.794 860.797C482.998 863.62 443.376 842.725 423.689 804.843Z" stroke="url(#paint34_radial)" stroke-width="1.84289"/>
<path d="M413.291 773.298L397.447 730.097C377.907 676.821 399.023 608.405 450.389 558.566C509.656 501.06 593.357 483.305 649.413 516.349L676.765 532.473C684.399 536.973 693.508 539.368 703.374 539.468C733.795 539.779 754.13 561.593 751.913 591.538L751.02 603.595C749.162 628.674 734.651 654.462 712.091 672.773L652.529 721.119C639.318 731.842 628.053 744.738 619.543 758.879C594.235 800.933 546.821 828.692 502.722 827.271L492.814 826.952C454.96 825.732 425.144 805.616 413.291 773.298Z" stroke="url(#paint35_radial)" stroke-width="1.84289"/>
<path d="M405.998 738.112L397.885 690.762C390.685 648.741 413.276 600.661 455.665 567.792C510.833 525.013 583.79 519.692 624.936 555.446L637.135 566.047C642.47 570.683 649.359 573.743 657.186 574.954C679.932 578.474 692.664 597.066 687.543 619.286L684.152 634.003C679.605 653.733 665.45 672.66 645.763 685.332L593.841 718.753C582.61 725.982 572.698 734.988 564.78 745.156C539.843 777.183 497.525 794.975 461.604 788.536L458.745 788.024C430.346 782.933 410.453 764.109 405.998 738.112Z" stroke="url(#paint36_radial)" stroke-width="1.84289"/>
<path d="M413.45 710.589L407.468 675.975C402.1 644.911 418.818 609.341 450.196 585.065C490.853 553.61 544.548 549.697 574.893 575.976L584.093 583.943C588.035 587.357 593.118 589.61 598.892 590.502C615.708 593.1 625.124 606.84 621.344 623.265L618.88 633.976C615.531 648.529 605.081 662.489 590.549 671.82L552.228 696.426C543.929 701.754 536.604 708.397 530.751 715.901C512.357 739.485 481.184 752.582 454.717 747.846L452.472 747.444C431.482 743.688 416.768 729.791 413.45 710.589Z" stroke="url(#paint37_radial)" stroke-width="1.84289"/>
<path d="M424.78 683.764L420.99 662.18C417.515 642.391 428.187 619.698 448.229 604.259C473.978 584.423 507.9 581.954 527.145 598.514L533.225 603.746C535.734 605.905 538.962 607.329 542.625 607.893C553.338 609.544 559.342 618.292 556.942 628.754L555.423 635.376C553.305 644.609 546.663 653.464 537.431 659.364L513.092 674.919C507.811 678.295 503.146 682.51 499.418 687.275C487.749 702.189 468.021 710.466 451.264 707.477L449.676 707.194C436.309 704.81 426.925 695.979 424.78 683.764Z" stroke="url(#paint38_radial)" stroke-width="1.84289"/>
<path d="M436.484 660.085L434.666 649.43C433.061 640.025 438.121 629.263 447.601 621.903C459.959 612.31 476.321 611.11 485.534 619.13L488.249 621.492C489.443 622.532 490.986 623.218 492.74 623.49C497.831 624.278 500.68 628.44 499.533 633.414L498.768 636.732C497.748 641.153 494.578 645.394 490.168 648.236L478.538 655.73C476.024 657.351 473.805 659.369 472.033 661.646C466.446 668.828 456.958 672.818 448.905 671.374L448.285 671.262C441.928 670.122 437.477 665.906 436.484 660.085Z" stroke="url(#paint39_radial)" stroke-width="1.84289"/>
<rect y="-9.15527e-05" width="1125.09" height="1478" fill="url(#paint40_linear)"/>
<g style="mix-blend-mode:color-dodge" opacity="0.8" filter="url(#filter2_f)">
<ellipse rx="302.84" ry="108.227" transform="matrix(-0.461052 -0.887373 -0.887373 0.461052 590.672 1078.79)" fill="url(#paint41_linear)"/>
</g>
<g style="mix-blend-mode:color-dodge" opacity="0.8" filter="url(#filter3_f)">
<ellipse rx="302.84" ry="108.227" transform="matrix(-0.461052 -0.887373 -0.887373 0.461052 897.521 586.992)" fill="url(#paint42_linear)"/>
</g>
<g style="mix-blend-mode:screen" opacity="0.8" filter="url(#filter4_f)">
<ellipse rx="638.581" ry="228.213" transform="matrix(0.625796 -0.779987 -0.779987 -0.625796 -273.792 736.729)" fill="url(#paint43_linear)"/>
</g>
<g style="mix-blend-mode:color-dodge" opacity="0.8" filter="url(#filter5_f)">
<ellipse rx="204.852" ry="73.2091" transform="matrix(-0.461052 -0.887373 -0.887373 0.461052 478.881 946.826)" fill="url(#paint44_linear)"/>
</g>
<g style="mix-blend-mode:color-dodge" opacity="0.8" filter="url(#filter6_f)">
<ellipse rx="204.852" ry="73.2091" transform="matrix(-0.461052 -0.887373 -0.887373 0.461052 34.0939 215.534)" fill="url(#paint45_linear)"/>
</g>
<g style="mix-blend-mode:color-dodge" opacity="0.8" filter="url(#filter7_f)">
<path d="M392.572 744.388C381.984 780.121 402.487 804.841 432.274 862.172C462.062 919.503 587.8 956.193 608.289 945.547C628.777 934.902 509.705 945.972 479.917 888.641C450.13 831.31 394.785 797.466 392.572 744.388Z" fill="url(#paint46_linear)"/>
</g>
<g style="mix-blend-mode:color-dodge" opacity="0.8" filter="url(#filter8_f)">
<path d="M498.36 385.018C487.773 420.75 508.275 445.471 538.062 502.802C567.85 560.133 693.588 596.822 714.077 586.177C734.565 575.531 615.493 586.601 585.705 529.27C555.918 471.939 500.573 438.096 498.36 385.018Z" fill="url(#paint47_linear)"/>
</g>
<g style="mix-blend-mode:color-dodge" opacity="0.8" filter="url(#filter9_f)">
<ellipse rx="215.393" ry="76.9761" transform="matrix(-0.461052 -0.887373 -0.887373 0.461052 470.77 207.626)" fill="url(#paint48_linear)"/>
</g>
<g opacity="0.6" filter="url(#filter10_f)">
<ellipse rx="217.482" ry="103.528" transform="matrix(0.899237 -0.437461 -0.437461 -0.899237 1021.32 1467.2)" fill="url(#paint49_linear)"/>
</g>
</g>
<defs>
<filter id="filter0_f" x="28.3631" y="999.569" width="371.102" height="437.709" filterUnits="userSpaceOnUse" color-interpolation-filters="sRGB">
<feFlood flood-opacity="0" result="BackgroundImageFix"/>
<feBlend mode="normal" in="SourceGraphic" in2="BackgroundImageFix" result="shape"/>
<feGaussianBlur stdDeviation="33.7338" result="effect1_foregroundBlur"/>
</filter>
<filter id="filter1_f" x="177.639" y="274.8" width="1543.98" height="1354.94" filterUnits="userSpaceOnUse" color-interpolation-filters="sRGB">
<feFlood flood-opacity="0" result="BackgroundImageFix"/>
<feBlend mode="normal" in="SourceGraphic" in2="BackgroundImageFix" result="shape"/>
<feGaussianBlur stdDeviation="157.983" result="effect1_foregroundBlur"/>
</filter>
<filter id="filter2_f" x="180.351" y="585.5" width="820.641" height="986.576" filterUnits="userSpaceOnUse" color-interpolation-filters="sRGB">
<feFlood flood-opacity="0" result="BackgroundImageFix"/>
<feBlend mode="normal" in="SourceGraphic" in2="BackgroundImageFix" result="shape"/>
<feGaussianBlur stdDeviation="87.3288" result="effect1_foregroundBlur"/>
</filter>
<filter id="filter3_f" x="487.2" y="93.7039" width="820.641" height="986.576" filterUnits="userSpaceOnUse" color-interpolation-filters="sRGB">
<feFlood flood-opacity="0" result="BackgroundImageFix"/>
<feBlend mode="normal" in="SourceGraphic" in2="BackgroundImageFix" result="shape"/>
<feGaussianBlur stdDeviation="87.3288" result="effect1_foregroundBlur"/>
</filter>
<filter id="filter4_f" x="-1079.66" y="-149.849" width="1611.74" height="1773.16" filterUnits="userSpaceOnUse" color-interpolation-filters="sRGB">
<feFlood flood-opacity="0" result="BackgroundImageFix"/>
<feBlend mode="normal" in="SourceGraphic" in2="BackgroundImageFix" result="shape"/>
<feGaussianBlur stdDeviation="184.145" result="effect1_foregroundBlur"/>
</filter>
<filter id="filter5_f" x="201.325" y="613.147" width="555.113" height="667.358" filterUnits="userSpaceOnUse" color-interpolation-filters="sRGB">
<feFlood flood-opacity="0" result="BackgroundImageFix"/>
<feBlend mode="normal" in="SourceGraphic" in2="BackgroundImageFix" result="shape"/>
<feGaussianBlur stdDeviation="59.0725" result="effect1_foregroundBlur"/>
</filter>
<filter id="filter6_f" x="-243.462" y="-118.145" width="555.113" height="667.358" filterUnits="userSpaceOnUse" color-interpolation-filters="sRGB">
<feFlood flood-opacity="0" result="BackgroundImageFix"/>
<feBlend mode="normal" in="SourceGraphic" in2="BackgroundImageFix" result="shape"/>
<feGaussianBlur stdDeviation="59.0725" result="effect1_foregroundBlur"/>
</filter>
<filter id="filter7_f" x="307.464" y="629.966" width="371.102" height="437.709" filterUnits="userSpaceOnUse" color-interpolation-filters="sRGB">
<feFlood flood-opacity="0" result="BackgroundImageFix"/>
<feBlend mode="normal" in="SourceGraphic" in2="BackgroundImageFix" result="shape"/>
<feGaussianBlur stdDeviation="33.7338" result="effect1_foregroundBlur"/>
</filter>
<filter id="filter8_f" x="413.252" y="270.595" width="371.102" height="437.709" filterUnits="userSpaceOnUse" color-interpolation-filters="sRGB">
<feFlood flood-opacity="0" result="BackgroundImageFix"/>
<feBlend mode="normal" in="SourceGraphic" in2="BackgroundImageFix" result="shape"/>
<feGaussianBlur stdDeviation="33.7338" result="effect1_foregroundBlur"/>
</filter>
<filter id="filter9_f" x="178.932" y="-143.223" width="583.676" height="701.697" filterUnits="userSpaceOnUse" color-interpolation-filters="sRGB">
<feFlood flood-opacity="0" result="BackgroundImageFix"/>
<feBlend mode="normal" in="SourceGraphic" in2="BackgroundImageFix" result="shape"/>
<feGaussianBlur stdDeviation="62.1121" result="effect1_foregroundBlur"/>
</filter>
<filter id="filter10_f" x="590.173" y="1103.73" width="862.299" height="726.945" filterUnits="userSpaceOnUse" color-interpolation-filters="sRGB">
<feFlood flood-opacity="0" result="BackgroundImageFix"/>
<feBlend mode="normal" in="SourceGraphic" in2="BackgroundImageFix" result="shape"/>
<feGaussianBlur stdDeviation="115.181" result="effect1_foregroundBlur"/>
</filter>
<radialGradient id="paint0_radial" cx="0" cy="0" r="1" gradientUnits="userSpaceOnUse" gradientTransform="translate(-117.324 1055.02) rotate(84.4192) scale(883.327 759.759)">
<stop stop-color="#1B1D34"/>
<stop offset="0.302083" stop-color="#42F1C4"/>
<stop offset="0.713542" stop-color="#9E22FF"/>
<stop offset="1" stop-color="#FF47ED"/>
</radialGradient>
<radialGradient id="paint1_radial" cx="0" cy="0" r="1" gradientUnits="userSpaceOnUse" gradientTransform="translate(-121.061 1064.13) rotate(83.3305) scale(933.319 795.061)">
<stop stop-color="#1B1D34"/>
<stop offset="0.302083" stop-color="#42F1C4"/>
<stop offset="0.713542" stop-color="#9E22FF"/>
<stop offset="1" stop-color="#FF47ED"/>
</radialGradient>
<radialGradient id="paint2_radial" cx="0" cy="0" r="1" gradientUnits="userSpaceOnUse" gradientTransform="translate(-113.947 1046.47) rotate(86.0511) scale(833.605 727.564)">
<stop stop-color="#1B1D34"/>
<stop offset="0.302083" stop-color="#42F1C4"/>
<stop offset="0.713542" stop-color="#9E22FF"/>
<stop offset="1" stop-color="#FF47ED"/>
</radialGradient>
<radialGradient id="paint3_radial" cx="0" cy="0" r="1" gradientUnits="userSpaceOnUse" gradientTransform="translate(-111.236 1037.01) rotate(87.3381) scale(782.003 690.763)">
<stop stop-color="#1B1D34"/>
<stop offset="0.302083" stop-color="#42F1C4"/>
<stop offset="0.713542" stop-color="#9E22FF"/>
<stop offset="1" stop-color="#FF47ED"/>
</radialGradient>
<radialGradient id="paint4_radial" cx="0" cy="0" r="1" gradientUnits="userSpaceOnUse" gradientTransform="translate(-108.44 1028.24) rotate(88.818) scale(731.718 655.392)">
<stop stop-color="#1B1D34"/>
<stop offset="0.302083" stop-color="#42F1C4"/>
<stop offset="0.713542" stop-color="#9E22FF"/>
<stop offset="1" stop-color="#FF47ED"/>
</radialGradient>
<radialGradient id="paint5_radial" cx="0" cy="0" r="1" gradientUnits="userSpaceOnUse" gradientTransform="translate(-105.787 1019.39) rotate(90.3243) scale(680.541 618.332)">
<stop stop-color="#1B1D34"/>
<stop offset="0.302083" stop-color="#42F1C4"/>
<stop offset="0.713542" stop-color="#9E22FF"/>
<stop offset="1" stop-color="#FF47ED"/>
</radialGradient>
<radialGradient id="paint6_radial" cx="0" cy="0" r="1" gradientUnits="userSpaceOnUse" gradientTransform="translate(-103.505 1010.35) rotate(92.333) scale(627.13 580.817)">
<stop stop-color="#1B1D34"/>
<stop offset="0.302083" stop-color="#42F1C4"/>
<stop offset="0.713542" stop-color="#9E22FF"/>
<stop offset="1" stop-color="#FF47ED"/>
</radialGradient>
<radialGradient id="paint7_radial" cx="0" cy="0" r="1" gradientUnits="userSpaceOnUse" gradientTransform="translate(-99.868 1001.55) rotate(94.3438) scale(573.257 541.24)">
<stop stop-color="#1B1D34"/>
<stop offset="0.302083" stop-color="#42F1C4"/>
<stop offset="0.713542" stop-color="#9E22FF"/>
<stop offset="1" stop-color="#FF47ED"/>
</radialGradient>
<radialGradient id="paint8_radial" cx="0" cy="0" r="1" gradientUnits="userSpaceOnUse" gradientTransform="translate(-95.8374 993.348) rotate(96.7802) scale(520.246 502.306)">
<stop stop-color="#1B1D34"/>
<stop offset="0.302083" stop-color="#42F1C4"/>
<stop offset="0.713542" stop-color="#9E22FF"/>
<stop offset="1" stop-color="#FF47ED"/>
</radialGradient>
<radialGradient id="paint9_radial" cx="0" cy="0" r="1" gradientUnits="userSpaceOnUse" gradientTransform="translate(-91.2027 984.859) rotate(99.8634) scale(466.154 463.224)">
<stop stop-color="#1B1D34"/>
<stop offset="0.302083" stop-color="#42F1C4"/>
<stop offset="0.713542" stop-color="#9E22FF"/>
<stop offset="1" stop-color="#FF47ED"/>
</radialGradient>
<radialGradient id="paint10_radial" cx="0" cy="0" r="1" gradientUnits="userSpaceOnUse" gradientTransform="translate(-85.5518 977.226) rotate(102.664) scale(415.043 422.723)">
<stop stop-color="#1B1D34"/>
<stop offset="0.302083" stop-color="#42F1C4"/>
<stop offset="0.713542" stop-color="#9E22FF"/>
<stop offset="1" stop-color="#FF47ED"/>
</radialGradient>
<radialGradient id="paint11_radial" cx="0" cy="0" r="1" gradientUnits="userSpaceOnUse" gradientTransform="translate(-78.3926 970.059) rotate(106.751) scale(362.445 382.536)">
<stop stop-color="#1B1D34"/>
<stop offset="0.302083" stop-color="#42F1C4"/>
<stop offset="0.713542" stop-color="#9E22FF"/>
<stop offset="1" stop-color="#FF47ED"/>
</radialGradient>
<radialGradient id="paint12_radial" cx="0" cy="0" r="1" gradientUnits="userSpaceOnUse" gradientTransform="translate(-70.036 963.451) rotate(112.01) scale(310.082 341.023)">
<stop stop-color="#1B1D34"/>
<stop offset="0.302083" stop-color="#42F1C4"/>
<stop offset="0.713542" stop-color="#9E22FF"/>
<stop offset="1" stop-color="#FF47ED"/>
</radialGradient>
<radialGradient id="paint13_radial" cx="0" cy="0" r="1" gradientUnits="userSpaceOnUse" gradientTransform="translate(-38.5653 952.847) rotate(122.257) scale(274.685 316.096)">
<stop stop-color="#1B1D34"/>
<stop offset="0.302083" stop-color="#42F1C4"/>
<stop offset="0.713542" stop-color="#9E22FF"/>
<stop offset="1" stop-color="#FF47ED"/>
</radialGradient>
<radialGradient id="paint14_radial" cx="0" cy="0" r="1" gradientUnits="userSpaceOnUse" gradientTransform="translate(-53.5346 952.496) rotate(125.682) scale(211.636 253.238)">
<stop stop-color="#1B1D34"/>
<stop offset="0.302083" stop-color="#42F1C4"/>
<stop offset="0.713542" stop-color="#9E22FF"/>
<stop offset="1" stop-color="#FF47ED"/>
</radialGradient>
<radialGradient id="paint15_radial" cx="0" cy="0" r="1" gradientUnits="userSpaceOnUse" gradientTransform="translate(-44.6559 949.163) rotate(136.387) scale(165.931 206.246)">
<stop stop-color="#1B1D34"/>
<stop offset="0.302083" stop-color="#42F1C4"/>
<stop offset="0.713542" stop-color="#9E22FF"/>
<stop offset="1" stop-color="#FF47ED"/>
</radialGradient>
<radialGradient id="paint16_radial" cx="0" cy="0" r="1" gradientUnits="userSpaceOnUse" gradientTransform="translate(-41.6242 945.358) rotate(136.284) scale(122.479 152.071)">
<stop stop-color="#1B1D34"/>
<stop offset="0.302083" stop-color="#42F1C4"/>
<stop offset="0.713542" stop-color="#9E22FF"/>
<stop offset="1" stop-color="#FF47ED"/>
</radialGradient>
<radialGradient id="paint17_radial" cx="0" cy="0" r="1" gradientUnits="userSpaceOnUse" gradientTransform="translate(-39.4612 943.892) rotate(136.089) scale(77.8072 96.4037)">
<stop stop-color="#1B1D34"/>
<stop offset="0.302083" stop-color="#42F1C4"/>
<stop offset="0.713542" stop-color="#9E22FF"/>
<stop offset="1" stop-color="#FF47ED"/>
</radialGradient>
<linearGradient id="paint18_linear" x1="547.942" y1="1049.9" x2="1300.36" y2="1466.66" gradientUnits="userSpaceOnUse">
<stop offset="0.127095"/>
<stop offset="0.578945" stop-opacity="0"/>
<stop offset="0.922611"/>
</linearGradient>
<linearGradient id="paint19_linear" x1="235.572" y1="1356.63" x2="52.9754" y2="1229.46" gradientUnits="userSpaceOnUse">
<stop offset="1" stop-color="#45EABF"/>
</linearGradient>
<linearGradient id="paint20_linear" x1="159.97" y1="195.79" x2="732.48" y2="416.087" gradientUnits="userSpaceOnUse">
<stop stop-color="#D866E5"/>
<stop offset="1" stop-color="#45EABF"/>
</linearGradient>
<radialGradient id="paint21_radial" cx="0" cy="0" r="1" gradientUnits="userSpaceOnUse" gradientTransform="translate(615.165 760.311) rotate(-5.58082) scale(1326.49 1140.92)">
<stop stop-color="#1B1D34"/>
<stop offset="0.302083" stop-color="#42F1C4"/>
<stop offset="0.713542" stop-color="#9E22FF"/>
<stop offset="1" stop-color="#FF47ED"/>
</radialGradient>
<radialGradient id="paint22_radial" cx="0" cy="0" r="1" gradientUnits="userSpaceOnUse" gradientTransform="translate(628.841 765.929) rotate(-6.66951) scale(1401.56 1193.94)">
<stop stop-color="#1B1D34"/>
<stop offset="0.302083" stop-color="#42F1C4"/>
<stop offset="0.713542" stop-color="#9E22FF"/>
<stop offset="1" stop-color="#FF47ED"/>
</radialGradient>
<radialGradient id="paint23_radial" cx="0" cy="0" r="1" gradientUnits="userSpaceOnUse" gradientTransform="translate(602.32 755.243) rotate(-3.94894) scale(1251.82 1092.58)">
<stop stop-color="#1B1D34"/>
<stop offset="0.302083" stop-color="#42F1C4"/>
<stop offset="0.713542" stop-color="#9E22FF"/>
<stop offset="1" stop-color="#FF47ED"/>
</radialGradient>
<radialGradient id="paint24_radial" cx="0" cy="0" r="1" gradientUnits="userSpaceOnUse" gradientTransform="translate(588.123 751.173) rotate(-2.6619) scale(1174.33 1037.31)">
<stop stop-color="#1B1D34"/>
<stop offset="0.302083" stop-color="#42F1C4"/>
<stop offset="0.713542" stop-color="#9E22FF"/>
<stop offset="1" stop-color="#FF47ED"/>
</radialGradient>
<radialGradient id="paint25_radial" cx="0" cy="0" r="1" gradientUnits="userSpaceOnUse" gradientTransform="translate(574.948 746.973) rotate(-1.18204) scale(1098.81 984.196)">
<stop stop-color="#1B1D34"/>
<stop offset="0.302083" stop-color="#42F1C4"/>
<stop offset="0.713542" stop-color="#9E22FF"/>
<stop offset="1" stop-color="#FF47ED"/>
</radialGradient>
<radialGradient id="paint26_radial" cx="0" cy="0" r="1" gradientUnits="userSpaceOnUse" gradientTransform="translate(561.661 742.992) rotate(0.32431) scale(1021.96 928.544)">
<stop stop-color="#1B1D34"/>
<stop offset="0.302083" stop-color="#42F1C4"/>
<stop offset="0.713542" stop-color="#9E22FF"/>
<stop offset="1" stop-color="#FF47ED"/>
</radialGradient>
<radialGradient id="paint27_radial" cx="0" cy="0" r="1" gradientUnits="userSpaceOnUse" gradientTransform="translate(548.076 739.565) rotate(2.33296) scale(941.756 872.207)">
<stop stop-color="#1B1D34"/>
<stop offset="0.302083" stop-color="#42F1C4"/>
<stop offset="0.713542" stop-color="#9E22FF"/>
<stop offset="1" stop-color="#FF47ED"/>
</radialGradient>
<radialGradient id="paint28_radial" cx="0" cy="0" r="1" gradientUnits="userSpaceOnUse" gradientTransform="translate(534.865 734.102) rotate(4.34376) scale(860.855 812.776)">
<stop stop-color="#1B1D34"/>
<stop offset="0.302083" stop-color="#42F1C4"/>
<stop offset="0.713542" stop-color="#9E22FF"/>
<stop offset="1" stop-color="#FF47ED"/>
</radialGradient>
<radialGradient id="paint29_radial" cx="0" cy="0" r="1" gradientUnits="userSpaceOnUse" gradientTransform="translate(522.551 728.048) rotate(6.78021) scale(781.249 754.308)">
<stop stop-color="#1B1D34"/>
<stop offset="0.302083" stop-color="#42F1C4"/>
<stop offset="0.713542" stop-color="#9E22FF"/>
<stop offset="1" stop-color="#FF47ED"/>
</radialGradient>
<radialGradient id="paint30_radial" cx="0" cy="0" r="1" gradientUnits="userSpaceOnUse" gradientTransform="translate(509.801 721.088) rotate(9.86345) scale(700.02 695.619)">
<stop stop-color="#1B1D34"/>
<stop offset="0.302083" stop-color="#42F1C4"/>
<stop offset="0.713542" stop-color="#9E22FF"/>
<stop offset="1" stop-color="#FF47ED"/>
</radialGradient>
<radialGradient id="paint31_radial" cx="0" cy="0" r="1" gradientUnits="userSpaceOnUse" gradientTransform="translate(498.339 712.604) rotate(12.6637) scale(623.266 634.799)">
<stop stop-color="#1B1D34"/>
<stop offset="0.302083" stop-color="#42F1C4"/>
<stop offset="0.713542" stop-color="#9E22FF"/>
<stop offset="1" stop-color="#FF47ED"/>
</radialGradient>
<radialGradient id="paint32_radial" cx="0" cy="0" r="1" gradientUnits="userSpaceOnUse" gradientTransform="translate(487.578 701.852) rotate(16.7505) scale(544.28 574.451)">
<stop stop-color="#1B1D34"/>
<stop offset="0.302083" stop-color="#42F1C4"/>
<stop offset="0.713542" stop-color="#9E22FF"/>
<stop offset="1" stop-color="#FF47ED"/>
</radialGradient>
<radialGradient id="paint33_radial" cx="0" cy="0" r="1" gradientUnits="userSpaceOnUse" gradientTransform="translate(477.654 689.303) rotate(22.0105) scale(465.647 512.112)">
<stop stop-color="#1B1D34"/>
<stop offset="0.302083" stop-color="#42F1C4"/>
<stop offset="0.713542" stop-color="#9E22FF"/>
<stop offset="1" stop-color="#FF47ED"/>
</radialGradient>
<radialGradient id="paint34_radial" cx="0" cy="0" r="1" gradientUnits="userSpaceOnUse" gradientTransform="translate(461.728 642.044) rotate(32.2567) scale(412.492 474.679)">
<stop stop-color="#1B1D34"/>
<stop offset="0.302083" stop-color="#42F1C4"/>
<stop offset="0.713542" stop-color="#9E22FF"/>
<stop offset="1" stop-color="#FF47ED"/>
</radialGradient>
<radialGradient id="paint35_radial" cx="0" cy="0" r="1" gradientUnits="userSpaceOnUse" gradientTransform="translate(461.204 664.525) rotate(35.6819) scale(317.811 380.286)">
<stop stop-color="#1B1D34"/>
<stop offset="0.302083" stop-color="#42F1C4"/>
<stop offset="0.713542" stop-color="#9E22FF"/>
<stop offset="1" stop-color="#FF47ED"/>
</radialGradient>
<radialGradient id="paint36_radial" cx="0" cy="0" r="1" gradientUnits="userSpaceOnUse" gradientTransform="translate(456.197 651.192) rotate(46.3871) scale(249.177 309.717)">
<stop stop-color="#1B1D34"/>
<stop offset="0.302083" stop-color="#42F1C4"/>
<stop offset="0.713542" stop-color="#9E22FF"/>
<stop offset="1" stop-color="#FF47ED"/>
</radialGradient>
<radialGradient id="paint37_radial" cx="0" cy="0" r="1" gradientUnits="userSpaceOnUse" gradientTransform="translate(450.483 646.637) rotate(46.284) scale(183.926 228.363)">
<stop stop-color="#1B1D34"/>
<stop offset="0.302083" stop-color="#42F1C4"/>
<stop offset="0.713542" stop-color="#9E22FF"/>
<stop offset="1" stop-color="#FF47ED"/>
</radialGradient>
<radialGradient id="paint38_radial" cx="0" cy="0" r="1" gradientUnits="userSpaceOnUse" gradientTransform="translate(448.282 643.387) rotate(46.0885) scale(116.842 144.769)">
<stop stop-color="#1B1D34"/>
<stop offset="0.302083" stop-color="#42F1C4"/>
<stop offset="0.713542" stop-color="#9E22FF"/>
<stop offset="1" stop-color="#FF47ED"/>
</radialGradient>
<radialGradient id="paint39_radial" cx="0" cy="0" r="1" gradientUnits="userSpaceOnUse" gradientTransform="translate(447.73 640.586) rotate(46.4375) scale(55.8109 69.4073)">
<stop stop-color="#1B1D34"/>
<stop offset="0.302083" stop-color="#42F1C4"/>
<stop offset="0.713542" stop-color="#9E22FF"/>
<stop offset="1" stop-color="#FF47ED"/>
</radialGradient>
<linearGradient id="paint40_linear" x1="165.86" y1="-8.15621e-05" x2="998.358" y2="1336.54" gradientUnits="userSpaceOnUse">
<stop offset="0.156642"/>
<stop offset="0.578945" stop-opacity="0"/>
<stop offset="0.922611"/>
</linearGradient>
<linearGradient id="paint41_linear" x1="281.383" y1="66.9306" x2="404.895" y2="230.002" gradientUnits="userSpaceOnUse">
<stop stop-color="#D866E5"/>
<stop offset="1" stop-color="#45EABF"/>
</linearGradient>
<linearGradient id="paint42_linear" x1="88.4269" y1="108.227" x2="404.895" y2="230.002" gradientUnits="userSpaceOnUse">
<stop stop-color="#D866E5"/>
<stop offset="1" stop-color="#45EABF"/>
</linearGradient>
<linearGradient id="paint43_linear" x1="186.461" y1="228.213" x2="853.779" y2="484.991" gradientUnits="userSpaceOnUse">
<stop stop-color="#D866E5"/>
<stop offset="1" stop-color="#45EABF"/>
</linearGradient>
<linearGradient id="paint44_linear" x1="59.8154" y1="73.2092" x2="273.887" y2="155.582" gradientUnits="userSpaceOnUse">
<stop stop-color="#D866E5"/>
<stop offset="1" stop-color="#45EABF"/>
</linearGradient>
<linearGradient id="paint45_linear" x1="59.8154" y1="73.2092" x2="273.887" y2="155.582" gradientUnits="userSpaceOnUse">
<stop stop-color="#D866E5"/>
<stop offset="1" stop-color="#45EABF"/>
</linearGradient>
<linearGradient id="paint46_linear" x1="514.673" y1="987.028" x2="416.569" y2="900.237" gradientUnits="userSpaceOnUse">
<stop stop-color="#D866E5"/>
<stop offset="1" stop-color="#45EABF"/>
</linearGradient>
<linearGradient id="paint47_linear" x1="620.461" y1="627.657" x2="437.864" y2="500.487" gradientUnits="userSpaceOnUse">
<stop offset="1" stop-color="#45EABF"/>
</linearGradient>
<linearGradient id="paint48_linear" x1="62.8932" y1="76.9761" x2="287.98" y2="163.587" gradientUnits="userSpaceOnUse">
<stop stop-color="#D866E5"/>
<stop offset="1" stop-color="#45EABF"/>
</linearGradient>
<linearGradient id="paint49_linear" x1="63.503" y1="103.528" x2="304.326" y2="173.096" gradientUnits="userSpaceOnUse">
<stop stop-color="#D866E5"/>
<stop offset="1" stop-color="#45EABF"/>
</linearGradient>
<clipPath id="clip0">
<rect width="1125.09" height="1478" fill="white"/>
</clipPath>
</defs>
</svg>
